#!OML:ASF F:\VICON\USERDATA\INSTALL\rory3\rory3.ASF
:FULLY-SPECIFIED
:DEGREES
393
root 2.58801 9.72734 -5.57533 -18.7161 -4.40957 1.01992
lowerback 28.7665 1.37316 -1.33848
upperback 11.6107 1.44642 1.57348
thorax -2.90069 0.613086 2.05977
lowerneck -22.3237 3.04904 -6.92632
upperneck 18.2155 6.14424 1.40753
head 9.14547 2.5322 2.4641
rclavicle 5.96354e-015 -3.97569e-016
rhumerus -13.6834 18.0557 -82.9972
rradius 89.8613
rwrist 38.8411
rhand -34.091 10.8228
rfingers 7.12502
rthumb -7.26743 -19.0324
lclavicle 5.96354e-015 -3.97569e-016
lhumerus -9.31054 -16.0587 91.0878
lradius 80.7106
lwrist -25.8995
lhand -29.434 18.2796
lfingers 7.12502
lthumb -2.77088 48.2414
rfemur -76.3813 -10.6813 21.8073
rtibia 106.599
rfoot -5.6687 2.44936
rtoes 8.22243
lfemur -76.4684 13.6886 -24.5014
ltibia 102.279
lfoot -6.11609 -12.4114
ltoes -3.81325
394
root 2.58966 9.73184 -5.57132 -18.6888 -4.40121 1.01841
lowerback 28.8539 1.39641 -1.39903
upperback 11.6371 1.45953 1.58541
thorax -2.91295 0.61704 2.10318
lowerneck -22.505 3.19459 -6.8062
upperneck 17.865 6.28497 1.50413
head 9.04702 2.62963 2.49168
rclavicle 1.53064e-014 5.56597e-015
rhumerus -13.7134 18.087 -82.9391
rradius 90.0468
rwrist 38.7282
rhand -33.9034 10.7746
rfingers 7.12502
rthumb -7.08635 -19.0868
lclavicle 1.53064e-014 5.56597e-015
lhumerus -9.23453 -16.1345 91.0005
lradius 80.7952
lwrist -25.1692
lhand -29.4919 18.5154
lfingers 7.12502
lthumb -2.82681 48.4764
rfemur -76.3791 -10.7385 21.8049
rtibia 106.594
rfoot -5.67205 2.54323
rtoes 7.63313
lfemur -76.4636 13.6349 -24.5065
ltibia 102.292
lfoot -6.12645 -12.3163
ltoes -3.64166
395
root 2.58711 9.73493 -5.57287 -18.622 -4.42729 0.915464
lowerback 28.8833 1.43208 -1.38218
upperback 11.6702 1.51147 1.63638
thorax -2.89259 0.641139 2.13378
lowerneck -22.7256 3.3772 -6.54504
upperneck 17.5452 6.47438 1.4208
head 8.97627 2.73643 2.44375
rclavicle 1.09332e-014 7.15625e-015
rhumerus -13.7037 18.076 -82.8419
rradius 90.1893
rwrist 38.782
rhand -33.7835 10.7171
rfingers 7.12502
rthumb -6.97061 -19.1482
lclavicle 1.09332e-014 7.15625e-015
lhumerus -9.12626 -16.2749 90.9212
lradius 80.8233
lwrist -24.516
lhand -29.3848 18.5472
lfingers 7.12502
lthumb -2.72331 48.5096
rfemur -76.4083 -10.7571 21.973
rtibia 106.579
rfoot -5.70539 2.56536
rtoes 7.05712
lfemur -76.5432 13.6242 -24.378
ltibia 102.308
lfoot -6.09202 -12.358
ltoes -3.41541
396
root 2.58167 9.72759 -5.57318 -18.5195 -4.36314 0.897433
lowerback 28.9633 1.50207 -1.45006
upperback 11.6253 1.58644 1.68698
thorax -2.98592 0.676323 2.20435
lowerneck -22.5894 3.53984 -6.34125
upperneck 17.0152 6.62609 1.31296
head 8.7732 2.8283 2.37619
rclavicle -1.39149e-014 -6.75868e-015
rhumerus -13.819 17.986 -82.6899
rradius 90.3136
rwrist 38.9702
rhand -33.6932 10.4467
rfingers 7.12502
rthumb -6.88344 -19.4214
lclavicle -1.39149e-014 -6.75868e-015
lhumerus -9.12624 -16.6193 90.8946
lradius 80.8365
lwrist -23.7939
lhand -29.653 18.3184
lfingers 7.12502
lthumb -2.98235 48.2773
rfemur -76.5762 -10.8449 22.0542
rtibia 106.65
rfoot -5.75651 2.58446
rtoes 6.69711
lfemur -76.7236 13.5673 -24.3881
ltibia 102.381
lfoot -6.06607 -12.3627
ltoes -3.49689
397
root 2.5799 9.72249 -5.56841 -18.4539 -4.30317 1.03097
lowerback 28.9413 1.60642 -1.64552
upperback 11.6314 1.66991 1.69695
thorax -2.97738 0.711928 2.30246
lowerneck -22.5063 3.6243 -6.15379
upperneck 16.5387 6.68456 1.19469
head 8.60331 2.87148 2.29888
rclavicle 9.93923e-015 5.56597e-015
rhumerus -13.8696 17.8512 -82.5367
rradius 90.4259
rwrist 39.2215
rhand -33.4091 10.4628
rfingers 7.12502
rthumb -6.60914 -19.4141
lclavicle 9.93923e-015 5.56597e-015
lhumerus -9.09982 -16.995 90.8594
lradius 80.9883
lwrist -22.9974
lhand -29.9036 18.2941
lfingers 7.12502
lthumb -3.22438 48.2494
rfemur -76.728 -10.9669 21.9555
rtibia 106.775
rfoot -5.79635 2.65365
rtoes 6.53587
lfemur -76.8054 13.5109 -24.5628
ltibia 102.453
lfoot -6.12297 -12.2895
ltoes -3.59236
398
root 2.57984 9.7139 -5.54965 -18.4885 -4.259 1.3201
lowerback 28.9098 1.73796 -1.98339
upperback 11.7057 1.74699 1.65562
thorax -2.88915 0.739739 2.42891
lowerneck -22.7918 3.67291 -5.89176
upperneck 16.313 6.72632 0.971656
head 8.59076 2.88785 2.18961
rclavicle -4.77083e-015 -1.35174e-014
rhumerus -13.8047 17.7591 -82.4055
rradius 90.4341
rwrist 39.533
rhand -33.3335 10.3419
rfingers 7.12502
rthumb -6.53618 -19.5372
lclavicle -4.77083e-015 -1.35174e-014
lhumerus -8.9381 -17.2991 90.7689
lradius 80.9977
lwrist -22.4114
lhand -29.8167 18.2053
lfingers 7.12502
lthumb -3.14047 48.1619
rfemur -76.8029 -11.1268 21.6618
rtibia 106.987
rfoot -5.87961 2.86194
rtoes 6.90655
lfemur -76.7747 13.4706 -24.8554
ltibia 102.559
lfoot -6.20882 -12.23
ltoes -3.30876
399
root 2.57894 9.69702 -5.52486 -18.4528 -4.11533 1.62555
lowerback 28.8301 1.81249 -2.33108
upperback 11.78 1.75003 1.59067
thorax -2.77399 0.730905 2.55824
lowerneck -23.146 3.6522 -5.83159
upperneck 16.0623 6.68488 1.01469
head 8.56605 2.88315 2.19224
rclavicle -6.36111e-015 -4.37326e-015
rhumerus -13.6818 17.6782 -82.3149
rradius 90.4374
rwrist 39.8648
rhand -33.1829 10.24
rfingers 7.12502
rthumb -6.39081 -19.6436
lclavicle -6.36111e-015 -4.37326e-015
lhumerus -8.56254 -17.6357 90.5497
lradius 80.7649
lwrist -21.7937
lhand -29.752 18.0016
lfingers 7.12502
lthumb -3.07799 47.9591
rfemur -77.053 -11.3397 21.3049
rtibia 107.255
rfoot -5.87904 3.06467
rtoes 7.33275
lfemur -76.8841 13.2949 -25.2012
ltibia 102.681
lfoot -6.25488 -12.1587
ltoes -3.33369
400
root 2.58175 9.70067 -5.51752 -18.3744 -3.94879 1.86219
lowerback 28.7386 1.85563 -2.5729
upperback 11.807 1.74374 1.54779
thorax -2.70456 0.721168 2.6534
lowerneck -23.3326 3.55421 -6.09392
upperneck 15.7415 6.54864 1.44876
head 8.46574 2.8624 2.35861
rclavicle 1.25234e-014 7.15625e-015
rhumerus -13.6541 17.5771 -82.1771
rradius 90.4683
rwrist 40.0777
rhand -33.0749 10.3093
rfingers 7.12502
rthumb -6.28652 -19.5774
lclavicle 1.25234e-014 7.15625e-015
lhumerus -8.38792 -17.8827 90.4456
lradius 80.7721
lwrist -21.07
lhand -29.5448 17.7402
lfingers 7.12502
lthumb -2.87783 47.7005
rfemur -77.1819 -11.6082 21.0414
rtibia 107.341
rfoot -5.89246 3.23146
rtoes 7.26283
lfemur -76.8881 13.1067 -25.5295
ltibia 102.629
lfoot -6.20665 -12.0824
ltoes -2.97786
401
root 2.58669 9.72296 -5.5276 -18.2966 -3.86862 1.90206
lowerback 28.6807 1.84854 -2.61065
upperback 11.7912 1.72781 1.5534
thorax -2.69569 0.712535 2.6866
lowerneck -23.3935 3.54047 -6.30732
upperneck 15.4239 6.527 1.77682
head 8.34742 2.88705 2.49266
rclavicle -2.18663e-014 -8.34896e-015
rhumerus -13.6491 17.5468 -82.0583
rradius 90.4473
rwrist 40.1882
rhand -32.8606 10.5296
rfingers 7.12502
rthumb -6.07958 -19.3631
lclavicle -2.18663e-014 -8.34896e-015
lhumerus -8.42469 -17.9725 90.4484
lradius 80.9252
lwrist -20.444
lhand -29.4829 17.3348
lfingers 7.12502
lthumb -2.81805 47.296
rfemur -77.1143 -11.829 21.0376
rtibia 107.242
rfoot -5.94054 3.30665
rtoes 6.89138
lfemur -76.7881 13.0353 -25.6465
ltibia 102.482
lfoot -6.18886 -12.1178
ltoes -2.59104
402
root 2.5885 9.72896 -5.52186 -18.2395 -3.9168 1.84486
lowerback 28.6546 1.88292 -2.54295
upperback 11.7281 1.79257 1.59726
thorax -2.75915 0.747316 2.67589
lowerneck -23.4901 3.6025 -6.28965
upperneck 15.3207 6.59743 1.83458
head 8.32299 2.93097 2.518
rclavicle 3.77691e-015 1.07344e-014
rhumerus -13.7659 17.4458 -81.9815
rradius 90.4285
rwrist 40.2164
rhand -32.7742 10.8369
rfingers 7.12502
rthumb -5.99619 -19.0583
lclavicle 3.77691e-015 1.07344e-014
lhumerus -8.5221 -18.2562 90.4658
lradius 80.9964
lwrist -19.9026
lhand -29.307 17.3493
lfingers 7.12502
lthumb -2.64824 47.3126
rfemur -77.0919 -11.9154 21.1714
rtibia 107.208
rfoot -6.01502 3.3768
rtoes 6.83713
lfemur -76.8169 13.0543 -25.5811
ltibia 102.48
lfoot -6.24758 -12.1321
ltoes -2.73955
